<mxfile host="app.diagrams.net" agent="Mozilla/5.0 (Macintosh; Intel Mac OS X 10_15_7) AppleWebKit/605.1.15 (KHTML, like Gecko) Version/16.5 Safari/605.1.15" version="27.0.9">
  <diagram name="Страница — 1" id="oIGkv35JSirXxDSVPZw_">
    <mxGraphModel dx="969" dy="581" grid="1" gridSize="10" guides="1" tooltips="1" connect="1" arrows="1" fold="1" page="1" pageScale="1" pageWidth="827" pageHeight="1169" math="0" shadow="0">
      <root>
        <mxCell id="0" />
        <mxCell id="1" parent="0" />
        <mxCell id="ZmkryA6pYVP38JDTjNkh-3" value="Начало" style="html=1;dashed=0;whiteSpace=wrap;shape=mxgraph.dfd.start" vertex="1" parent="1">
          <mxGeometry x="320" y="90" width="160" height="30" as="geometry" />
        </mxCell>
        <mxCell id="ZmkryA6pYVP38JDTjNkh-4" value="Hold, Containers,&lt;div&gt;&amp;nbsp;N, &amp;nbsp;G, M, E, T&amp;nbsp;&lt;/div&gt;" style="shape=parallelogram;perimeter=parallelogramPerimeter;whiteSpace=wrap;html=1;dashed=0;" vertex="1" parent="1">
          <mxGeometry x="320" y="150" width="160" height="40" as="geometry" />
        </mxCell>
        <mxCell id="ZmkryA6pYVP38JDTjNkh-7" value="Генерация начальной популяции из N особей" style="shape=process;whiteSpace=wrap;html=1;backgroundOutline=1;" vertex="1" parent="1">
          <mxGeometry x="320" y="220" width="160" height="50" as="geometry" />
        </mxCell>
        <mxCell id="ZmkryA6pYVP38JDTjNkh-9" value="Цикл g от 1 до G" style="shape=loopLimit;whiteSpace=wrap;html=1;" vertex="1" parent="1">
          <mxGeometry x="320" y="300" width="160" height="40" as="geometry" />
        </mxCell>
        <mxCell id="ZmkryA6pYVP38JDTjNkh-14" value="G" style="shape=loopLimit;whiteSpace=wrap;html=1;direction=west;" vertex="1" parent="1">
          <mxGeometry x="320" y="790" width="160" height="40" as="geometry" />
        </mxCell>
        <mxCell id="ZmkryA6pYVP38JDTjNkh-15" value="Вычисление функции приспособленности для каждой особи" style="shape=process;whiteSpace=wrap;html=1;backgroundOutline=1;" vertex="1" parent="1">
          <mxGeometry x="320" y="370" width="160" height="60" as="geometry" />
        </mxCell>
        <mxCell id="ZmkryA6pYVP38JDTjNkh-16" value="Отбор E / 100 * N элитных особей" style="shape=process;whiteSpace=wrap;html=1;backgroundOutline=1;" vertex="1" parent="1">
          <mxGeometry x="320" y="460" width="160" height="50" as="geometry" />
        </mxCell>
        <mxCell id="ZmkryA6pYVP38JDTjNkh-17" value="Турнирный отбор особей для дальнейшего скрещивания" style="shape=process;whiteSpace=wrap;html=1;backgroundOutline=1;" vertex="1" parent="1">
          <mxGeometry x="320" y="540" width="160" height="60" as="geometry" />
        </mxCell>
        <mxCell id="ZmkryA6pYVP38JDTjNkh-20" value="Cкрещивание отобранных особей" style="shape=process;whiteSpace=wrap;html=1;backgroundOutline=1;" vertex="1" parent="1">
          <mxGeometry x="320" y="630" width="160" height="50" as="geometry" />
        </mxCell>
        <mxCell id="ZmkryA6pYVP38JDTjNkh-21" value="Мутация особей с вероятностью M" style="shape=process;whiteSpace=wrap;html=1;backgroundOutline=1;" vertex="1" parent="1">
          <mxGeometry x="320" y="710" width="160" height="50" as="geometry" />
        </mxCell>
        <mxCell id="ZmkryA6pYVP38JDTjNkh-23" value="Вычисление функции приспособленности для каждой особи" style="shape=process;whiteSpace=wrap;html=1;backgroundOutline=1;" vertex="1" parent="1">
          <mxGeometry x="320" y="860" width="160" height="60" as="geometry" />
        </mxCell>
        <mxCell id="ZmkryA6pYVP38JDTjNkh-24" value="Наилучшая особь" style="shape=parallelogram;perimeter=parallelogramPerimeter;whiteSpace=wrap;html=1;dashed=0;" vertex="1" parent="1">
          <mxGeometry x="320" y="1020" width="160" height="40" as="geometry" />
        </mxCell>
        <mxCell id="ZmkryA6pYVP38JDTjNkh-25" value="Выбор самой приспособленной особи" style="rounded=0;whiteSpace=wrap;html=1;" vertex="1" parent="1">
          <mxGeometry x="320" y="940" width="160" height="50" as="geometry" />
        </mxCell>
        <mxCell id="ZmkryA6pYVP38JDTjNkh-26" value="Конец" style="html=1;dashed=0;whiteSpace=wrap;shape=mxgraph.dfd.start" vertex="1" parent="1">
          <mxGeometry x="320" y="1090" width="160" height="30" as="geometry" />
        </mxCell>
        <mxCell id="ZmkryA6pYVP38JDTjNkh-27" value="" style="endArrow=none;html=1;rounded=0;entryX=0.5;entryY=0.5;entryDx=0;entryDy=15;entryPerimeter=0;exitX=0.5;exitY=0;exitDx=0;exitDy=0;" edge="1" parent="1" source="ZmkryA6pYVP38JDTjNkh-4" target="ZmkryA6pYVP38JDTjNkh-3">
          <mxGeometry width="50" height="50" relative="1" as="geometry">
            <mxPoint x="420" y="240" as="sourcePoint" />
            <mxPoint x="470" y="190" as="targetPoint" />
          </mxGeometry>
        </mxCell>
        <mxCell id="ZmkryA6pYVP38JDTjNkh-28" value="" style="endArrow=none;html=1;rounded=0;entryX=0.5;entryY=0.5;entryDx=0;entryDy=15;entryPerimeter=0;exitX=0.5;exitY=0;exitDx=0;exitDy=0;" edge="1" parent="1">
          <mxGeometry width="50" height="50" relative="1" as="geometry">
            <mxPoint x="399.5" y="220" as="sourcePoint" />
            <mxPoint x="399.5" y="190" as="targetPoint" />
          </mxGeometry>
        </mxCell>
        <mxCell id="ZmkryA6pYVP38JDTjNkh-29" value="" style="endArrow=none;html=1;rounded=0;entryX=0.5;entryY=0.5;entryDx=0;entryDy=15;entryPerimeter=0;exitX=0.5;exitY=0;exitDx=0;exitDy=0;" edge="1" parent="1">
          <mxGeometry width="50" height="50" relative="1" as="geometry">
            <mxPoint x="399.5" y="300" as="sourcePoint" />
            <mxPoint x="399.5" y="270" as="targetPoint" />
          </mxGeometry>
        </mxCell>
        <mxCell id="ZmkryA6pYVP38JDTjNkh-30" value="" style="endArrow=none;html=1;rounded=0;entryX=0.5;entryY=0.5;entryDx=0;entryDy=15;entryPerimeter=0;exitX=0.5;exitY=0;exitDx=0;exitDy=0;" edge="1" parent="1">
          <mxGeometry width="50" height="50" relative="1" as="geometry">
            <mxPoint x="399.5" y="370" as="sourcePoint" />
            <mxPoint x="399.5" y="340" as="targetPoint" />
          </mxGeometry>
        </mxCell>
        <mxCell id="ZmkryA6pYVP38JDTjNkh-31" value="" style="endArrow=none;html=1;rounded=0;entryX=0.5;entryY=0.5;entryDx=0;entryDy=15;entryPerimeter=0;exitX=0.5;exitY=0;exitDx=0;exitDy=0;" edge="1" parent="1">
          <mxGeometry width="50" height="50" relative="1" as="geometry">
            <mxPoint x="399.5" y="460" as="sourcePoint" />
            <mxPoint x="399.5" y="430" as="targetPoint" />
          </mxGeometry>
        </mxCell>
        <mxCell id="ZmkryA6pYVP38JDTjNkh-32" value="" style="endArrow=none;html=1;rounded=0;entryX=0.5;entryY=0.5;entryDx=0;entryDy=15;entryPerimeter=0;exitX=0.5;exitY=0;exitDx=0;exitDy=0;" edge="1" parent="1">
          <mxGeometry width="50" height="50" relative="1" as="geometry">
            <mxPoint x="399.5" y="540" as="sourcePoint" />
            <mxPoint x="399.5" y="510" as="targetPoint" />
          </mxGeometry>
        </mxCell>
        <mxCell id="ZmkryA6pYVP38JDTjNkh-33" value="" style="endArrow=none;html=1;rounded=0;entryX=0.5;entryY=0.5;entryDx=0;entryDy=15;entryPerimeter=0;exitX=0.5;exitY=0;exitDx=0;exitDy=0;" edge="1" parent="1">
          <mxGeometry width="50" height="50" relative="1" as="geometry">
            <mxPoint x="400" y="630" as="sourcePoint" />
            <mxPoint x="400" y="600" as="targetPoint" />
          </mxGeometry>
        </mxCell>
        <mxCell id="ZmkryA6pYVP38JDTjNkh-34" value="" style="endArrow=none;html=1;rounded=0;entryX=0.5;entryY=0.5;entryDx=0;entryDy=15;entryPerimeter=0;exitX=0.5;exitY=0;exitDx=0;exitDy=0;" edge="1" parent="1">
          <mxGeometry width="50" height="50" relative="1" as="geometry">
            <mxPoint x="400" y="710" as="sourcePoint" />
            <mxPoint x="400" y="680" as="targetPoint" />
          </mxGeometry>
        </mxCell>
        <mxCell id="ZmkryA6pYVP38JDTjNkh-35" value="" style="endArrow=none;html=1;rounded=0;entryX=0.5;entryY=0.5;entryDx=0;entryDy=15;entryPerimeter=0;exitX=0.5;exitY=0;exitDx=0;exitDy=0;" edge="1" parent="1">
          <mxGeometry width="50" height="50" relative="1" as="geometry">
            <mxPoint x="400" y="790" as="sourcePoint" />
            <mxPoint x="400" y="760" as="targetPoint" />
          </mxGeometry>
        </mxCell>
        <mxCell id="ZmkryA6pYVP38JDTjNkh-36" value="" style="endArrow=none;html=1;rounded=0;entryX=0.5;entryY=0.5;entryDx=0;entryDy=15;entryPerimeter=0;exitX=0.5;exitY=0;exitDx=0;exitDy=0;" edge="1" parent="1">
          <mxGeometry width="50" height="50" relative="1" as="geometry">
            <mxPoint x="400" y="860" as="sourcePoint" />
            <mxPoint x="400" y="830" as="targetPoint" />
          </mxGeometry>
        </mxCell>
        <mxCell id="ZmkryA6pYVP38JDTjNkh-37" value="" style="endArrow=none;html=1;rounded=0;entryX=0.5;entryY=0.5;entryDx=0;entryDy=15;entryPerimeter=0;exitX=0.5;exitY=0;exitDx=0;exitDy=0;" edge="1" parent="1" source="ZmkryA6pYVP38JDTjNkh-25">
          <mxGeometry width="50" height="50" relative="1" as="geometry">
            <mxPoint x="400" y="930" as="sourcePoint" />
            <mxPoint x="400" y="920" as="targetPoint" />
          </mxGeometry>
        </mxCell>
        <mxCell id="ZmkryA6pYVP38JDTjNkh-38" value="" style="endArrow=none;html=1;rounded=0;entryX=0.5;entryY=0.5;entryDx=0;entryDy=15;entryPerimeter=0;exitX=0.5;exitY=0;exitDx=0;exitDy=0;" edge="1" parent="1">
          <mxGeometry width="50" height="50" relative="1" as="geometry">
            <mxPoint x="399.5" y="1020" as="sourcePoint" />
            <mxPoint x="399.5" y="990" as="targetPoint" />
          </mxGeometry>
        </mxCell>
        <mxCell id="ZmkryA6pYVP38JDTjNkh-39" value="" style="endArrow=none;html=1;rounded=0;entryX=0.5;entryY=0.5;entryDx=0;entryDy=15;entryPerimeter=0;exitX=0.5;exitY=0;exitDx=0;exitDy=0;" edge="1" parent="1">
          <mxGeometry width="50" height="50" relative="1" as="geometry">
            <mxPoint x="400" y="1090" as="sourcePoint" />
            <mxPoint x="400" y="1060" as="targetPoint" />
          </mxGeometry>
        </mxCell>
      </root>
    </mxGraphModel>
  </diagram>
</mxfile>
